<svg width="190" height="183" viewBox="0 0 190 183" fill="none" xmlns="http://www.w3.org/2000/svg">
<g filter="url(#filter0_d)">
<path d="M50 29.755V83.625L91.968 107.66L139.355 79.635V25.765" fill="black"/>
</g>
<path d="M50 29.755V83.625L91.968 107.66L139.355 79.635V25.765" fill="#FF9271"/>
<path d="M91.969 53.791V107.661L139.356 79.635V25.765L91.969 53.791Z" fill="#DF5C34"/>
<path d="M50 29.754L98.694 2L139.356 25.767L91.969 53.792L50 29.754Z" fill="#F47B56"/>
<path d="M93.083 14.364C98.0202 14.0307 102.95 15.1164 107.29 17.493C109.776 18.955 111.134 20.481 111.326 22.072C111.518 23.662 110.698 25.047 108.764 26.215C107.847 26.7818 106.836 27.1813 105.779 27.395C104.91 27.6 104.019 27.69 103.127 27.664L102.153 27.587C102.244 27.804 102.304 28.033 102.333 28.267C102.302 28.8206 102.125 29.3562 101.82 29.819C101.313 30.6793 100.589 31.3914 99.72 31.884C97.6953 33.087 95.3746 33.7001 93.02 33.654C90.5835 33.7195 88.1762 33.1115 86.063 31.897C84.064 30.717 83.04 29.331 82.963 27.741C82.9705 26.8988 83.2147 26.0758 83.6678 25.3658C84.1208 24.6558 84.7644 24.0876 85.525 23.726C86.2548 23.2709 87.0495 22.9293 87.882 22.713C88.5458 22.5213 89.2291 22.4053 89.919 22.367H90.624L89.342 21.597L92.942 19.353L101.282 24.265C101.92 24.6084 102.633 24.7881 103.357 24.7881C104.081 24.7881 104.794 24.6084 105.432 24.265C107.201 23.162 106.569 21.713 103.537 19.917C100.315 18.1427 96.6516 17.3283 92.981 17.57C89.0905 17.6177 85.2847 18.712 81.963 20.738C78.94 22.628 77.441 24.881 77.467 27.498C77.467 30.062 79.068 32.346 82.181 34.18C85.5787 36.0803 89.4375 36.9995 93.327 36.835C97.1992 36.8982 101.013 35.8857 104.344 33.91C105.497 33.2268 106.531 32.3605 107.406 31.345C107.991 30.7237 108.428 29.9786 108.686 29.165L108.866 28.357L113.619 28.626C113.627 28.771 113.627 28.916 113.619 29.062C113.532 29.4546 113.416 29.8403 113.273 30.216C113.067 30.8189 112.791 31.396 112.453 31.936C111.965 32.6627 111.398 33.3335 110.763 33.936C109.925 34.7444 109.001 35.4587 108.008 36.066C105.148 37.7829 101.98 38.9243 98.682 39.426C95.0882 40.0536 91.4187 40.1184 87.805 39.618C84.5201 39.2308 81.3453 38.1929 78.466 36.565C76.1411 35.3341 74.2795 33.3805 73.162 30.999C72.7053 29.96 72.4695 28.8374 72.4695 27.7025C72.4695 26.5676 72.7053 25.445 73.162 24.406C74.269 21.9809 76.1114 19.966 78.428 18.647C82.842 15.9341 87.9028 14.4547 93.083 14.363V14.364ZM97.746 27.626C97.576 26.735 96.976 25.986 96.145 25.625C95.1359 25.0303 93.9863 24.7158 92.815 24.714C91.7261 24.6727 90.6487 24.9489 89.714 25.509C89.3374 25.6928 89.0186 25.9768 88.7927 26.3297C88.5667 26.6827 88.4423 27.091 88.433 27.51C88.55 28.4 89.123 29.164 89.945 29.524C90.9771 30.1138 92.1505 30.4111 93.339 30.384C94.4816 30.4125 95.6093 30.119 96.593 29.537C96.9578 29.37 97.266 29.1003 97.48 28.7609C97.694 28.4215 97.8045 28.0272 97.798 27.626" fill="#3E2928"/>
<defs>
<filter id="filter0_d" x="0" y="0.764999" width="189.355" height="181.895" filterUnits="userSpaceOnUse" color-interpolation-filters="sRGB">
<feFlood flood-opacity="0" result="BackgroundImageFix"/>
<feColorMatrix in="SourceAlpha" type="matrix" values="0 0 0 0 0 0 0 0 0 0 0 0 0 0 0 0 0 0 127 0" result="hardAlpha"/>
<feOffset dy="25"/>
<feGaussianBlur stdDeviation="25"/>
<feColorMatrix type="matrix" values="0 0 0 0 0.209139 0 0 0 0 0.0691446 0 0 0 0 0.478091 0 0 0 0.497159 0"/>
<feBlend mode="normal" in2="BackgroundImageFix" result="effect1_dropShadow"/>
<feBlend mode="normal" in="SourceGraphic" in2="effect1_dropShadow" result="shape"/>
</filter>
</defs>
</svg>
