<svg width="472" height="359" viewBox="0 0 472 359" fill="none" xmlns="http://www.w3.org/2000/svg">
<path d="M229.018 355.203L9.31299 225.211C2.31799 221.273 -3.67701 214.821 3.13799 210.589L223.625 83.367C226.93 81.315 231.952 79.968 235.321 81.93L465.916 215.937C472.91 220.003 474.166 231.329 467.196 235.433L257.972 354.998C253.581 357.549 248.601 358.909 243.523 358.945C238.445 358.981 233.446 357.691 229.019 355.203H229.018Z" fill="#5B36A0"/>
<path d="M229.018 349.203L9.31299 219.211C2.31799 215.273 -3.67701 208.821 3.13799 204.589L223.625 77.367C226.93 75.315 231.952 73.968 235.321 75.93L465.916 209.937C472.91 214.003 474.166 225.329 467.196 229.433L257.972 348.998C253.581 351.549 248.601 352.909 243.523 352.945C238.445 352.981 233.446 351.691 229.019 349.203H229.018Z" fill="#6862E6"/>
<path style="mix-blend-mode:multiply" opacity="0.25" d="M247.133 177.693L203.78 202.46C203.78 202.46 270.563 243.26 284.219 249.006L309.187 213.093" fill="url(#paint0_linear)"/>
<path style="mix-blend-mode:multiply" opacity="0.25" d="M232.157 296.513L188.792 271.798L145.428 296.565C145.428 296.565 168.013 310.365 189.599 323.038C203.307 313.328 217.027 303.517 232.157 296.513Z" fill="url(#paint1_linear)"/>
<path style="mix-blend-mode:multiply" opacity="0.46" d="M138.728 143.883L111.223 159.595C111.223 159.595 113.554 173.999 127.211 179.745L163.221 156.658" fill="url(#paint2_linear)"/>
<path d="M152.192 159.595C161.354 159.595 168.782 154.358 168.782 147.898C168.782 141.438 161.354 136.201 152.192 136.201C143.03 136.201 135.602 141.438 135.602 147.898C135.602 154.358 143.03 159.595 152.192 159.595Z" fill="#68E1FD"/>
<path d="M152.179 146.089C159.042 146.089 164.605 143.809 164.605 140.997C164.605 138.185 159.042 135.905 152.179 135.905C145.316 135.905 139.753 138.185 139.753 140.997C139.753 143.809 145.316 146.089 152.179 146.089Z" fill="#974C26"/>
<path d="M151.73 132.506C151.73 130.21 151.654 127.915 151.474 125.619C151.423 125.02 151.368 124.426 151.308 123.836L151.18 122.669C151.18 122.322 151 121.386 151 121.476C150.923 121.006 150.842 120.54 150.757 120.078C149.402 112.285 146.378 104.878 141.892 98.363C140.204 102.385 139.362 106.712 139.419 111.073C139.419 112.357 139.522 113.639 139.624 114.845V115.602C139.727 116.217 139.842 116.884 139.97 117.448C140.459 119.788 141.114 122.09 141.93 124.336C142.664 126.404 143.56 128.411 144.608 130.339C145.739 132.509 146.965 134.627 148.284 136.688C149.235 138.192 150.231 139.668 151.269 141.113C151.577 138.253 151.718 135.379 151.73 132.506ZM145.21 106.687C145.276 106.392 145.276 106.085 145.21 105.79C145.526 106.114 145.838 106.448 146.145 106.79C145.837 106.703 145.517 106.668 145.197 106.687H145.21Z" fill="#999A1C"/>
<path d="M155.996 134.276C157.266 132.36 158.434 130.378 159.494 128.338C159.776 127.808 160.049 127.278 160.314 126.748L160.839 125.683L161.339 124.58L161.889 123.297C164.96 115.999 166.415 108.123 166.155 100.21C162.553 102.681 159.501 105.868 157.188 109.573C156.524 110.642 155.904 111.737 155.33 112.857L155.074 113.331L155.01 113.537C154.767 114.114 154.523 114.691 154.293 115.281C153.443 117.516 152.753 119.809 152.23 122.143C151.732 124.282 151.402 126.456 151.244 128.646C151.018 131.08 150.907 133.524 150.911 135.969C150.911 137.88 150.911 139.625 151.026 141.305C152.73 139.035 154.446 136.7 155.996 134.276ZM164.452 109.022C164.652 108.796 164.801 108.529 164.887 108.239C164.981 108.684 165.062 109.112 165.131 109.522C164.931 109.322 164.701 109.154 164.451 109.022H164.452Z" fill="#999A1C"/>
<path d="M155.907 139.997C157.211 139.348 158.493 138.655 159.75 137.919L160.71 137.329L161.339 136.931L161.954 136.495L162.671 135.969C166.677 133.025 169.998 129.249 172.407 124.9C169.672 125.076 167.003 125.814 164.567 127.068C163.862 127.428 163.183 127.825 162.504 128.235L162.21 128.415L162.107 128.505L161.159 129.21C159.978 130.143 158.865 131.159 157.829 132.25C156.871 133.244 155.993 134.312 155.202 135.443C154.313 136.702 153.458 137.985 152.64 139.291C152.06 140.249 151.509 141.225 150.987 142.216C152.64 141.523 154.293 140.805 155.907 139.996V139.997ZM168.615 129.095C168.796 129.038 168.963 128.941 169.102 128.812C169.008 129.086 168.906 129.355 168.794 129.62C168.761 129.441 168.7 129.268 168.615 129.107V129.095ZM151.73 132.506C151.73 130.21 151.654 127.915 151.474 125.619C151.423 125.02 151.368 124.426 151.308 123.836L151.18 122.669C151.18 122.322 151 121.386 151 121.476C150.923 121.006 150.842 120.54 150.757 120.078C149.402 112.285 146.378 104.878 141.892 98.363C140.204 102.385 139.362 106.712 139.419 111.073C139.419 112.357 139.522 113.639 139.624 114.845V115.602C139.727 116.217 139.842 116.884 139.97 117.448C140.459 119.788 141.114 122.09 141.93 124.336C142.664 126.404 143.56 128.411 144.608 130.339C145.739 132.509 146.965 134.627 148.284 136.688C149.235 138.192 150.231 139.668 151.269 141.113C151.577 138.253 151.718 135.379 151.73 132.506ZM145.21 106.687C145.276 106.392 145.276 106.085 145.21 105.79C145.526 106.114 145.838 106.448 146.145 106.79C145.837 106.703 145.517 106.668 145.197 106.687H145.21Z" fill="#999A1C"/>
<path d="M155.996 134.276C157.266 132.36 158.434 130.378 159.494 128.338C159.776 127.808 160.049 127.278 160.314 126.748L160.839 125.683L161.339 124.58L161.889 123.297C164.96 115.999 166.415 108.123 166.155 100.21C162.553 102.681 159.501 105.868 157.188 109.573C156.524 110.642 155.904 111.737 155.33 112.857L155.074 113.331L155.01 113.537C154.767 114.114 154.523 114.691 154.293 115.281C153.443 117.516 152.753 119.809 152.23 122.143C151.732 124.282 151.402 126.456 151.244 128.646C151.018 131.08 150.907 133.524 150.911 135.969C150.911 137.88 150.911 139.625 151.026 141.305C152.73 139.035 154.446 136.7 155.996 134.276ZM164.452 109.022C164.652 108.796 164.801 108.529 164.887 108.239C164.981 108.684 165.062 109.112 165.131 109.522C164.931 109.322 164.701 109.154 164.451 109.022H164.452Z" fill="#999A1C"/>
<path d="M155.907 139.997C157.211 139.348 158.493 138.655 159.75 137.919L160.71 137.329L161.339 136.931L161.954 136.495L162.671 135.969C166.677 133.025 169.998 129.249 172.407 124.9C169.672 125.076 167.003 125.814 164.567 127.068C163.862 127.428 163.183 127.825 162.504 128.235L162.21 128.415L162.107 128.505L161.159 129.21C159.978 130.143 158.865 131.159 157.829 132.25C156.871 133.244 155.993 134.312 155.202 135.443C154.313 136.702 153.458 137.985 152.64 139.291C152.06 140.249 151.509 141.225 150.987 142.216C152.64 141.523 154.293 140.805 155.907 139.996V139.997ZM168.615 129.095C168.796 129.038 168.963 128.941 169.102 128.812C169.008 129.086 168.906 129.355 168.794 129.62C168.761 129.441 168.7 129.268 168.615 129.107V129.095Z" fill="#999A1C"/>
<path d="M264.35 168.022L240.356 179.565C239.452 180.001 238.683 180.674 238.132 181.514C237.582 182.353 237.27 183.327 237.23 184.33C237.191 185.333 237.425 186.328 237.908 187.208C238.391 188.088 239.105 188.82 239.972 189.325L296.839 222.545C298.068 223.264 299.528 223.48 300.912 223.148C302.297 222.816 303.5 221.961 304.269 220.763L318.092 199.24" fill="#A1482D"/>
<path d="M394.854 112.344L203.524 1.96201C202.212 1.20644 200.724 0.809591 199.21 0.811346C197.695 0.813101 196.208 1.2134 194.898 1.97201C193.587 2.73144 192.498 3.82226 191.741 5.13509C190.984 6.44793 190.586 7.93665 190.586 9.45201V124.285C190.586 125.545 190.917 126.784 191.547 127.875C192.176 128.967 193.082 129.874 194.173 130.505L398.146 248.39C398.849 248.798 399.648 249.013 400.462 249.014C401.275 249.014 402.074 248.8 402.778 248.393C403.482 247.985 404.067 247.4 404.473 246.694C404.879 245.989 405.092 245.189 405.09 244.375V130.018C405.088 126.432 404.14 122.911 402.343 119.808C400.546 116.705 397.963 114.13 394.854 112.344Z" fill="#F47B56"/>
<path d="M203.537 10.646L389.089 117.526C391.071 118.669 392.716 120.314 393.861 122.295C395.005 124.277 395.608 126.524 395.609 128.812V214.888C395.608 215.711 395.391 216.52 394.979 217.233C394.568 217.947 393.977 218.54 393.265 218.953C392.553 219.366 391.746 219.584 390.923 219.587C390.1 219.589 389.291 219.375 388.577 218.967L199.348 110.304C198.639 109.897 198.051 109.311 197.642 108.604C197.232 107.897 197.017 107.094 197.017 106.277V14.429C197.017 12.874 197.844 11.437 199.188 10.657C199.848 10.2736 200.598 10.0708 201.361 10.0689C202.125 10.0669 202.876 10.266 203.538 10.646H203.537Z" fill="white"/>
<path d="M281.611 172.999C283.8 172.577 285.183 170.206 284.701 167.702C284.219 165.198 282.054 163.51 279.865 163.931C277.676 164.353 276.293 166.724 276.775 169.228C277.257 171.732 279.422 173.42 281.611 172.999Z" fill="#AB643C"/>
<path opacity="0.32" d="M253.41 127.427L339.64 179.296L382.235 154.503L306.126 110.15" fill="url(#paint3_linear)"/>
<path d="M359.97 117.102L266.746 60.192C266.247 59.9033 265.68 59.7536 265.103 59.7585C264.527 59.7634 263.962 59.9228 263.468 60.22C262.974 60.5174 262.568 60.9416 262.292 61.4487C262.017 61.9559 261.883 62.5274 261.903 63.104V95.53C261.899 96.1163 262.047 96.6937 262.332 97.206C262.617 97.7184 263.03 98.1483 263.53 98.454L356.742 154.158C357.739 154.725 358.962 154.718 359.952 154.138C360.439 153.853 360.842 153.446 361.122 152.956C361.402 152.466 361.548 151.912 361.546 151.348L362.033 121.118C362.069 120.327 361.897 119.54 361.536 118.836C361.174 118.132 360.634 117.534 359.97 117.103V117.102Z" fill="#E2AC00"/>
<path d="M337.667 133.789C341.01 138.47 346.89 139.779 350.785 136.726C354.679 133.673 355.128 127.402 351.785 122.733C348.44 118.064 342.56 116.743 338.665 119.796C334.771 122.848 334.323 129.107 337.667 133.789Z" fill="white"/>
<path d="M328.52 111.318L290.497 88.398C290.17 88.245 289.798 88.2194 289.454 88.3263C289.11 88.4333 288.818 88.665 288.635 88.976C288.452 89.2873 288.392 89.6555 288.467 90.0088C288.541 90.362 288.744 90.6748 289.037 90.886L327.059 113.806C327.386 113.959 327.758 113.985 328.102 113.878C328.446 113.771 328.738 113.539 328.921 113.228C329.104 112.917 329.164 112.549 329.09 112.195C329.016 111.842 328.813 111.529 328.52 111.318ZM326.957 120.63L274.547 89.039C274.226 88.9288 273.876 88.9346 273.559 89.0556C273.242 89.1765 272.978 89.4049 272.811 89.7009C272.645 89.9969 272.588 90.3417 272.65 90.6754C272.712 91.0091 272.89 91.3105 273.151 91.527L325.496 123.13C325.823 123.283 326.195 123.309 326.539 123.202C326.883 123.095 327.175 122.863 327.358 122.552C327.541 122.241 327.601 121.873 327.527 121.519C327.453 121.166 327.25 120.853 326.957 120.642V120.629V120.63Z" fill="#F2F2F2"/>
<path d="M341.369 123.387L248.196 66.49C247.697 66.2012 247.13 66.0515 246.553 66.0565C245.977 66.0614 245.412 66.2208 244.918 66.518C244.424 66.8153 244.018 67.2396 243.742 67.7467C243.467 68.2538 243.333 68.8254 243.353 69.402V101.813C243.345 102.401 243.49 102.98 243.773 103.495C244.056 104.01 244.468 104.443 244.968 104.751L338.179 160.454C339.187 161.034 340.429 161.024 341.427 160.429C341.918 160.136 342.322 159.718 342.597 159.218C342.873 158.717 343.011 158.152 342.996 157.581L343.483 127.351C343.505 126.564 343.321 125.784 342.95 125.089C342.58 124.394 342.035 123.808 341.369 123.387Z" fill="#F47B56"/>
<path d="M319.065 140.074C322.409 144.755 328.289 146.064 332.184 143.011C336.078 139.958 336.526 133.686 333.183 129.018C329.839 124.348 323.959 123.028 320.065 126.08C316.17 129.133 315.722 135.392 319.065 140.074Z" fill="white"/>
<path d="M309.918 117.602L271.87 94.682C271.543 94.529 271.171 94.5034 270.827 94.6103C270.483 94.7173 270.19 94.949 270.008 95.26C269.825 95.5713 269.765 95.9395 269.839 96.2928C269.914 96.646 270.117 96.9588 270.41 97.17L308.432 120.09C308.759 120.243 309.13 120.269 309.475 120.162C309.819 120.055 310.111 119.823 310.294 119.512C310.477 119.201 310.537 118.833 310.463 118.479C310.389 118.126 310.186 117.813 309.893 117.602H309.918ZM308.343 126.978L255.946 95.336C255.619 95.1831 255.247 95.1577 254.903 95.2648C254.558 95.3719 254.266 95.6038 254.084 95.915C253.901 96.2263 253.841 96.5945 253.915 96.9478C253.99 97.301 254.193 97.6138 254.486 97.825L306.895 129.415C307.222 129.568 307.593 129.594 307.938 129.487C308.282 129.38 308.574 129.148 308.757 128.837C308.94 128.526 309 128.157 308.925 127.804C308.851 127.451 308.648 127.138 308.355 126.927L308.343 126.978Z" fill="#F2F2F2"/>
<path d="M317.99 127.21L224.79 70.313C224.291 70.0241 223.724 69.8742 223.147 69.879C222.571 69.8837 222.006 70.0429 221.512 70.34C221.018 70.6375 220.612 71.0618 220.337 71.5689C220.062 72.076 219.928 72.6475 219.948 73.224V105.636C219.944 106.222 220.092 106.8 220.377 107.312C220.662 107.824 221.075 108.254 221.575 108.56L314.786 164.264C315.794 164.844 317.036 164.834 318.035 164.238C318.525 163.945 318.929 163.527 319.205 163.027C319.48 162.527 319.618 161.962 319.603 161.391L320.09 131.16C320.111 130.376 319.928 129.601 319.56 128.909C319.192 128.216 318.651 127.631 317.99 127.21Z" fill="#68E1FD"/>
<path d="M317.99 127.21L224.79 70.313C224.291 70.0241 223.724 69.8742 223.147 69.879C222.571 69.8837 222.006 70.0429 221.512 70.34C221.018 70.6375 220.612 71.0618 220.337 71.5689C220.062 72.076 219.928 72.6475 219.948 73.224V105.636C219.944 106.222 220.092 106.8 220.377 107.312C220.662 107.824 221.075 108.254 221.575 108.56L314.786 164.264C315.794 164.844 317.036 164.834 318.035 164.238C318.525 163.945 318.929 163.527 319.205 163.027C319.48 162.527 319.618 161.962 319.603 161.391L320.09 131.16C320.111 130.376 319.928 129.601 319.56 128.909C319.192 128.216 318.651 127.631 317.99 127.21Z" fill="#68E1FD"/>
<path d="M295.673 143.896C299.016 148.577 304.897 149.886 308.791 146.833C312.686 143.78 313.134 137.508 309.791 132.84C306.447 128.171 300.566 126.85 296.672 129.903C292.778 132.955 292.368 139.214 295.672 143.896H295.673Z" fill="white"/>
<path d="M286.526 121.425L248.491 98.505C248.164 98.352 247.792 98.3264 247.448 98.4333C247.104 98.5403 246.811 98.7719 246.629 99.083C246.446 99.3942 246.386 99.7623 246.46 100.116C246.534 100.469 246.737 100.782 247.03 100.993L285.053 123.913C285.38 124.066 285.751 124.092 286.096 123.985C286.44 123.878 286.732 123.646 286.915 123.335C287.098 123.024 287.158 122.655 287.083 122.302C287.009 121.949 286.806 121.636 286.513 121.425H286.526ZM284.95 130.75L232.541 99.158C232.214 99.0051 231.842 98.9797 231.498 99.0868C231.153 99.1939 230.861 99.4258 230.679 99.737C230.496 100.048 230.436 100.417 230.51 100.77C230.585 101.123 230.788 101.436 231.081 101.647L283.49 133.237C283.817 133.39 284.188 133.416 284.533 133.309C284.877 133.202 285.169 132.97 285.352 132.659C285.535 132.348 285.595 131.979 285.52 131.626C285.446 131.273 285.243 130.96 284.95 130.749V130.75Z" fill="#F2F2F2"/>
<path d="M195.672 124.028C189.648 129.22 185.094 135.903 182.464 143.408C177.826 156.235 189.42 177.192 189.42 177.192L207.458 162.892" fill="#FF8F6F"/>
<path d="M193.724 293.602L188.831 290.896L190.111 283.893C190.111 283.893 197.401 284.585 198.041 287.176" fill="#003B94"/>
<path d="M195.518 293.5C196.62 292.82 197.773 292.217 198.913 291.614C201.743 290.062 205.831 288.459 207.573 285.547C207.93 284.958 208.099 284.275 208.058 283.587C208.017 282.9 207.768 282.241 207.343 281.699C204.78 278.595 199.169 283.7 196.299 280.263C195.736 279.583 195.467 268.796 195.467 268.796L184.552 271.746C184.552 271.746 182.707 293.422 182.912 294.756C183.117 296.09 186.871 297.322 186.871 297.322C187.989 297.084 189.056 296.65 190.022 296.039C191.162 295.205 190.124 285.034 191.585 286.458C193.045 287.882 193.685 293.448 193.685 293.448C194.292 293.54 194.907 293.558 195.518 293.499V293.5Z" fill="#F47B56"/>
<path d="M214.568 304.08L209.674 301.413L210.954 294.41C210.954 294.41 218.244 295.103 218.884 297.693" fill="#003B94"/>
<path d="M216.412 303.978C217.514 303.298 218.667 302.696 219.807 302.093C222.638 300.541 226.725 298.938 228.467 296.026C228.824 295.437 228.993 294.754 228.952 294.066C228.911 293.379 228.662 292.72 228.237 292.178C225.674 289.074 220.063 294.179 217.194 290.742C216.63 290.062 216.361 279.275 216.361 279.275L205.446 282.225C205.446 282.225 203.589 303.978 203.794 305.261C203.999 306.543 207.752 307.826 207.752 307.826C208.87 307.588 209.937 307.154 210.904 306.543C212.044 305.71 211.006 295.539 212.467 296.963C213.927 298.386 214.567 303.953 214.567 303.953C215.179 304.037 215.798 304.046 216.412 303.978Z" fill="#F47B56"/>
<path d="M179.005 233.614L175.789 276.672C175.789 276.672 180.914 283.752 198.093 279.814L198.259 250.788L179.005 233.614ZM198.849 242.144C198.477 245.85 198.849 286.74 198.849 286.74C198.849 286.74 203.601 295.641 224.291 286.74L223.996 251.994" fill="#3E2928"/>
<path d="M177.403 247.838C178.813 248.813 179.299 243.798 180.773 244.658C186.132 247.775 191.821 250.287 197.734 252.148H197.862C198.003 252.079 198.156 252.04 198.313 252.032C198.469 252.024 198.626 252.047 198.773 252.101C198.92 252.155 199.055 252.238 199.169 252.345C199.283 252.453 199.375 252.582 199.438 252.725C203.091 253.816 206.809 254.673 210.571 255.29C215.401 256.06 219.397 252.482 224.355 252.238C224.355 233.23 224.445 179.129 216.361 167.586L192.443 159.531C192.328 161.506 180.837 174.845 181.118 191.109C181.438 209.437 179.056 226.727 178.646 232.46C178.582 233.435 177.455 246.8 177.403 247.838Z" fill="#3E2928"/>
<path d="M218.564 145.73L216.361 167.534C216.361 167.534 198.516 168.253 190.829 162.943V144.447" fill="#FF8F6F"/>
<path d="M241.252 131.378L239.433 133.866C240.403 131.842 241.259 129.766 241.995 127.646C242.508 126.196 240.189 125.619 239.677 127.068L239.407 127.812C239.63 127.042 239.839 126.269 240.035 125.49C240.076 125.337 240.085 125.177 240.064 125.02C240.042 124.863 239.989 124.712 239.909 124.575C239.828 124.439 239.721 124.32 239.594 124.225C239.467 124.13 239.322 124.062 239.169 124.024C239.015 123.985 238.855 123.978 238.698 124.002C238.542 124.026 238.391 124.081 238.256 124.164C238.121 124.247 238.003 124.356 237.911 124.484C237.818 124.613 237.752 124.759 237.716 124.913C237.214 126.926 236.611 128.912 235.91 130.865C236.302 129.131 236.584 127.374 236.756 125.605C236.91 124.08 234.514 124.144 234.373 125.605C234.174 127.619 233.814 129.614 233.297 131.57C233.297 130.886 233.233 130.202 233.105 129.518C233.088 129.347 233.034 129.182 232.948 129.034C232.862 128.886 232.745 128.758 232.605 128.658C232.54 128.39 232.463 128.124 232.375 127.863C232.285 127.594 232.102 127.366 231.86 127.218C231.618 127.071 231.331 127.014 231.051 127.057C230.771 127.1 230.515 127.24 230.328 127.454C230.141 127.667 230.036 127.939 230.03 128.223L229.876 137.201C229.443 138.131 228.877 138.996 228.198 139.766C229.351 140.564 230.463 141.42 231.529 142.331C232.48 143.136 233.387 143.992 234.245 144.896C235.011 143.942 235.75 142.967 236.461 141.972C236.549 141.897 236.627 141.811 236.691 141.715C238.825 138.554 241.029 135.441 243.302 132.378C244.25 131.326 242.162 130.159 241.252 131.378Z" fill="#FFB5A9"/>
<path d="M207.24 125.85C207.24 125.85 215.67 128.12 219.09 133.545C221.232 137.301 223.12 141.196 224.74 145.205L230.965 135.52C230.965 135.52 238.524 137.842 241.521 141.562C241.521 141.562 232.554 161.185 224.739 162.866C216.925 164.546 208.623 151.348 208.623 151.348C208.623 151.348 206.907 156.863 207.24 150.976" fill="#FF8F6F"/>
<path d="M212.595 146.82C210.144 144.823 208.295 142.186 207.253 139.202C206.24 135.752 207.509 132.724 208.687 129.518C209.963 126.339 210.708 122.972 210.891 119.552C210.993 116.192 210.609 112.832 210.378 109.483C210.345 109.34 210.345 109.19 210.378 109.047C209.251 105.264 206.945 102.057 202.398 101.672C190.624 100.672 189.958 113.729 190.048 119.039C190.138 124.349 190.701 127.94 186.794 130.159C182.886 132.378 180.068 138.201 183.796 142.909C187.524 147.615 184.18 145.897 181.695 150.078C179.21 154.259 179.85 159.48 184.949 161.365C190.048 163.25 213.748 159.71 215.925 157.517C216.698 156.633 217.098 155.484 217.04 154.311C216.509 151.36 214.931 148.701 212.595 146.821V146.82Z" fill="#007F68"/>
<path d="M224.176 39.132C226.172 42.008 227.325 45.384 227.506 48.88C227.729 50.4805 227.341 52.1064 226.418 53.433C226.025 53.8657 225.5 54.155 224.924 54.255C224.348 54.3549 223.756 54.2599 223.24 53.985C222.593 53.7266 222.008 53.3332 221.524 52.831C221.089 52.4225 220.718 51.9513 220.422 51.433L220.115 50.83C220.031 50.9877 219.928 51.1341 219.807 51.266C219.502 51.5038 219.14 51.6585 218.757 51.715C218.116 51.8337 217.454 51.7531 216.861 51.484C215.445 50.8702 214.266 49.8123 213.504 48.47C212.585 47.0107 212.072 45.3327 212.018 43.609C211.924 42.9195 211.982 42.2178 212.188 41.5531C212.394 40.8884 212.743 40.2768 213.21 39.761C213.616 39.3691 214.132 39.1118 214.689 39.0245C215.246 38.9372 215.817 39.0239 216.323 39.273C216.836 39.478 217.309 39.773 217.719 40.146C218.069 40.443 218.378 40.783 218.641 41.159L218.871 41.569V40.428L221.434 41.428L221.69 48.637C221.708 49.153 221.868 49.654 222.152 50.086C222.392 50.503 222.761 50.831 223.202 51.022C224.44 51.51 225.012 50.441 224.919 47.816C224.79 45.2163 223.933 42.7052 222.446 40.569C221.111 38.397 219.125 36.7007 216.771 35.721C215.917 35.2863 214.952 35.1187 214.001 35.2399C213.051 35.3612 212.159 35.7658 211.441 36.401C210.676 37.1712 210.093 38.1035 209.736 39.129C209.379 40.1545 209.257 41.247 209.379 42.326C209.525 45.0751 210.41 47.7339 211.941 50.022C213.159 52.2805 215.079 54.0812 217.411 55.152C218.223 55.492 219.095 55.662 219.974 55.652C220.546 55.6909 221.119 55.5854 221.639 55.345L222.152 55.062L223.702 57.948L223.445 58.128C223.202 58.2647 222.95 58.3846 222.69 58.487C222.28 58.664 221.85 58.785 221.408 58.847C220.843 58.9229 220.27 58.9229 219.705 58.847C218.962 58.7582 218.234 58.5726 217.54 58.295C215.567 57.4451 213.814 56.1552 212.415 54.524C210.757 52.6885 209.415 50.5907 208.444 48.316C207.471 46.1428 206.915 43.8064 206.804 41.428C206.666 39.428 207.074 37.429 207.983 35.644C208.737 34.1463 210.041 32.9975 211.621 32.437C213.277 31.8912 215.076 31.9829 216.668 32.694C219.777 34.0099 222.401 36.2597 224.176 39.132ZM218.526 48.252C218.946 47.714 219.136 47.031 219.051 46.353C219.03 45.5174 218.797 44.7009 218.372 43.981C218.025 43.3526 217.48 42.8565 216.822 42.57C216.57 42.4397 216.284 42.3895 216.002 42.4261C215.72 42.4627 215.457 42.5845 215.246 42.775C215.025 43.0269 214.86 43.3233 214.763 43.6441C214.666 43.9649 214.639 44.3027 214.683 44.635C214.712 45.481 214.963 46.304 215.413 47.02C215.783 47.672 216.353 48.185 217.04 48.483C217.28 48.6062 217.554 48.6502 217.82 48.6087C218.087 48.5672 218.334 48.4424 218.526 48.252ZM375.433 178.013C377.432 180.887 378.585 184.264 378.763 187.761C378.986 189.361 378.598 190.987 377.675 192.314C377.281 192.745 376.756 193.032 376.181 193.132C375.606 193.232 375.014 193.138 374.498 192.866C373.852 192.604 373.268 192.211 372.781 191.712C372.348 191.301 371.977 190.83 371.679 190.313L371.372 189.711C371.285 189.867 371.182 190.013 371.064 190.147C370.76 190.387 370.398 190.542 370.014 190.596C369.379 190.724 368.72 190.647 368.131 190.378C366.713 189.761 365.534 188.698 364.774 187.351C363.846 185.89 363.329 184.207 363.275 182.477C363.178 181.787 363.234 181.085 363.44 180.42C363.646 179.754 363.997 179.143 364.467 178.629C364.871 178.238 365.385 177.982 365.94 177.895C366.495 177.808 367.063 177.894 367.567 178.142C368.081 178.346 368.554 178.641 368.963 179.014C369.313 179.316 369.623 179.661 369.886 180.04L370.129 180.45V179.309L372.691 180.296L372.948 187.505C372.97 188.02 373.129 188.52 373.408 188.954C373.65 189.371 374.018 189.699 374.459 189.89C375.74 190.378 376.266 189.313 376.189 186.684C376.059 184.08 375.202 181.565 373.716 179.424C372.381 177.26 370.4 175.569 368.054 174.589C367.201 174.154 366.237 173.986 365.287 174.104C364.336 174.223 363.444 174.624 362.724 175.256C361.962 176.035 361.386 176.976 361.038 178.009C360.69 179.041 360.579 180.139 360.714 181.22C360.857 183.969 361.742 186.628 363.275 188.915C364.541 191.12 366.481 192.86 368.81 193.879C369.622 194.217 370.493 194.392 371.372 194.392C371.944 194.425 372.515 194.32 373.037 194.084L373.55 193.802L375.1 196.688L374.844 196.868C374.6 197.005 374.348 197.125 374.088 197.227C373.676 197.397 373.246 197.517 372.807 197.586C372.237 197.662 371.66 197.662 371.09 197.586C370.351 197.493 369.628 197.303 368.938 197.022C366.966 196.176 365.213 194.89 363.813 193.263C362.155 191.423 360.814 189.321 359.843 187.043C358.869 184.87 358.313 182.534 358.203 180.155C358.064 178.16 358.471 176.164 359.381 174.383C360.137 172.884 361.439 171.732 363.019 171.164C364.68 170.624 366.482 170.715 368.079 171.421C371.152 172.806 373.722 175.109 375.433 178.013ZM369.783 187.133C369.994 186.868 370.149 186.563 370.242 186.237C370.334 185.911 370.361 185.57 370.321 185.234C370.299 184.397 370.061 183.58 369.63 182.862C369.289 182.233 368.748 181.736 368.092 181.451C367.841 181.319 367.556 181.267 367.275 181.301C366.993 181.336 366.729 181.455 366.517 181.643C366.292 181.893 366.124 182.188 366.024 182.51C365.925 182.831 365.896 183.17 365.94 183.503C365.97 184.345 366.221 185.163 366.67 185.876C367.039 186.531 367.61 187.048 368.297 187.351C368.536 187.476 368.808 187.522 369.075 187.483C369.342 187.444 369.59 187.321 369.783 187.133Z" fill="#F47B56"/>
<path style="mix-blend-mode:multiply" opacity="0.25" d="M120.139 232.704L76.774 208L33.423 232.754C33.423 232.754 57.545 247.837 79.132 260.51C92.839 250.813 105.022 239.719 120.139 232.703V232.704Z" fill="url(#paint4_linear)"/>
<defs>
<linearGradient id="paint0_linear" x1="268.269" y1="203.95" x2="254.327" y2="222.867" gradientUnits="userSpaceOnUse">
<stop stop-color="#78B46A"/>
<stop offset="0.03" stop-color="#7F3500"/>
<stop offset="1" stop-color="white"/>
</linearGradient>
<linearGradient id="paint1_linear" x1="216.707" y1="286.411" x2="187.466" y2="318.513" gradientUnits="userSpaceOnUse">
<stop stop-color="#78B46A"/>
<stop offset="0.03" stop-color="#7F3500"/>
<stop offset="1" stop-color="white"/>
</linearGradient>
<linearGradient id="paint2_linear" x1="153.165" y1="151.724" x2="131.24" y2="175.796" gradientUnits="userSpaceOnUse">
<stop stop-color="#78B46A"/>
<stop offset="0.03" stop-color="#7F3500"/>
<stop offset="1" stop-color="white"/>
</linearGradient>
<linearGradient id="paint3_linear" x1="357.779" y1="152.045" x2="344.641" y2="142.452" gradientUnits="userSpaceOnUse">
<stop stop-color="white" stop-opacity="0"/>
<stop offset="0.99" stop-color="#DC841E"/>
</linearGradient>
<linearGradient id="paint4_linear" x1="104.689" y1="222.46" x2="75.0202" y2="255.032" gradientUnits="userSpaceOnUse">
<stop stop-color="#78B46A"/>
<stop offset="0.03" stop-color="#7F3500"/>
<stop offset="1" stop-color="white"/>
</linearGradient>
</defs>
</svg>
