<svg width="12" height="12" viewBox="0 0 12 12" fill="none" xmlns="http://www.w3.org/2000/svg">
<path d="M11.8613 0.14561C11.7938 0.0784497 11.7084 0.0319508 11.6153 0.0115799C11.5222 -0.00879102 11.4252 -0.00218693 11.3357 0.0306157L0.322929 4.03041C0.227953 4.06639 0.146184 4.13038 0.0884824 4.21388C0.030781 4.29738 -0.00012207 4.39643 -0.00012207 4.49789C-0.00012207 4.59934 0.030781 4.6984 0.0884824 4.78189C0.146184 4.86539 0.227953 4.92938 0.322929 4.96536L4.62292 6.68027L7.7966 3.50044L8.50242 4.2054L5.31372 7.39024L7.03572 11.685C7.07281 11.778 7.13702 11.8578 7.22002 11.914C7.30303 11.9701 7.401 12.0001 7.50126 12C7.60242 11.9979 7.70057 11.9653 7.78279 11.9064C7.865 11.8475 7.92741 11.7651 7.96179 11.67L11.9664 0.670583C12.0005 0.582126 12.0088 0.485807 11.9902 0.392859C11.9715 0.29991 11.9269 0.214161 11.8613 0.14561Z" fill="white"/>
</svg>
