<svg width="17" height="14" viewBox="0 0 17 14" fill="none" xmlns="http://www.w3.org/2000/svg">
<path d="M7.71061 3.58443V1.16668C7.71058 1.01013 7.66413 0.857101 7.57714 0.726943C7.49014 0.596785 7.36651 0.495342 7.22188 0.435436C7.07724 0.375531 6.91809 0.359853 6.76454 0.390386C6.611 0.420919 6.46995 0.49629 6.35923 0.606973L0.817567 6.14864C0.743985 6.2221 0.685609 6.30934 0.64578 6.40538C0.60595 6.50142 0.585449 6.60437 0.585449 6.70835C0.585449 6.81232 0.60595 6.91527 0.64578 7.01131C0.685609 7.10735 0.743985 7.1946 0.817567 7.26806L6.35923 12.8097C6.4698 12.9208 6.61088 12.9965 6.76455 13.0273C6.91823 13.058 7.07757 13.0424 7.22237 12.9824C7.36716 12.9225 7.49087 12.8208 7.5778 12.6904C7.66473 12.56 7.71095 12.4067 7.71061 12.25V9.79901C7.93544 9.78318 8.1579 9.77606 8.37798 9.77606C12.6736 9.77606 14.9005 12.6039 14.9979 12.729C15.0977 12.861 15.2365 12.9582 15.3946 13.007C15.5528 13.0557 15.7222 13.0534 15.879 13.0005C16.0363 12.9478 16.173 12.8469 16.2699 12.7123C16.3668 12.5776 16.4189 12.4159 16.4189 12.25C16.4189 5.02685 10.0175 3.79422 7.71061 3.58443ZM8.37798 8.19272C7.86578 8.19272 7.33932 8.22835 6.81444 8.29801C6.62423 8.32351 6.44973 8.41718 6.32335 8.56161C6.19697 8.70604 6.1273 8.89143 6.12728 9.08335V10.3389L2.49669 6.70835L6.12728 3.07776V4.33335C6.12728 4.77035 6.50015 5.12501 6.93636 5.12501C7.65677 5.12501 13.3599 5.28414 14.5989 10.2115C13.2895 9.24722 11.2098 8.19272 8.37798 8.19272Z" fill="white"/>
</svg>
